<svg id="_i_icon_00324_icon_003240" xmlns="http://www.w3.org/2000/svg" width="30.991" height="30.991" viewBox="0 0 30.991 30.991">
  <path id="パス_67" data-name="パス 67" d="M15.5,0a15.5,15.5,0,1,0,15.5,15.5A15.5,15.5,0,0,0,15.5,0Zm0,27.117A11.622,11.622,0,1,1,27.117,15.5,11.635,11.635,0,0,1,15.5,27.117Z" transform="translate(0)" fill="#00a9b3"/>
  <path id="パス_68" data-name="パス 68" d="M164.48,152a1.136,1.136,0,0,0-.592.155L153.3,158.27a1.148,1.148,0,0,0,0,1.988l10.588,6.113a1.135,1.135,0,0,0,.592.155,1.11,1.11,0,0,0,.952-1.562l-2.453-5.7,2.453-5.7A1.11,1.11,0,0,0,164.48,152Z" transform="translate(-144.274 -143.768)" fill="#00a9b3"/>
</svg>
